<mxfile host="app.diagrams.net" modified="2021-01-25T08:27:21.558Z" agent="5.0 (Macintosh; Intel Mac OS X 10_15_7) AppleWebKit/537.36 (KHTML, like Gecko) Chrome/87.0.4280.141 Safari/537.36" etag="thCpzR23PcK3R2Zbi3Wk" version="14.2.7" type="github" pages="3">
  <diagram id="yYB73NOs23XYgVoK8Tbj" name="create listing">
    <mxGraphModel dx="1878" dy="767" grid="1" gridSize="10" guides="1" tooltips="1" connect="1" arrows="1" fold="1" page="1" pageScale="1" pageWidth="827" pageHeight="1169" math="0" shadow="0">
      <root>
        <mxCell id="0" />
        <mxCell id="1" parent="0" />
        <mxCell id="29iy6eKjMOHJ7e9zuqEV-38" value="global.moderation" style="rounded=0;whiteSpace=wrap;html=1;fontSize=14;" vertex="1" parent="1">
          <mxGeometry x="760" y="251.63" width="110" height="56.75" as="geometry" />
        </mxCell>
        <mxCell id="29iy6eKjMOHJ7e9zuqEV-58" value="Queue Service" style="outlineConnect=0;fontColor=#232F3E;gradientColor=none;strokeColor=#ffffff;fillColor=#232F3E;dashed=0;verticalLabelPosition=middle;verticalAlign=bottom;align=center;html=1;whiteSpace=wrap;fontSize=10;fontStyle=1;spacing=3;shape=mxgraph.aws4.productIcon;prIcon=mxgraph.aws4.sqs;" vertex="1" parent="1">
          <mxGeometry x="810" y="410" width="80" height="100" as="geometry" />
        </mxCell>
        <mxCell id="29iy6eKjMOHJ7e9zuqEV-68" value="" style="endArrow=none;html=1;fontSize=14;" edge="1" parent="1">
          <mxGeometry width="50" height="50" relative="1" as="geometry">
            <mxPoint x="147" y="640" as="sourcePoint" />
            <mxPoint x="147" y="230" as="targetPoint" />
          </mxGeometry>
        </mxCell>
        <mxCell id="29iy6eKjMOHJ7e9zuqEV-69" value="" style="endArrow=none;html=1;fontSize=14;" edge="1" parent="1">
          <mxGeometry width="50" height="50" relative="1" as="geometry">
            <mxPoint x="480.24" y="630.52" as="sourcePoint" />
            <mxPoint x="480" y="220" as="targetPoint" />
          </mxGeometry>
        </mxCell>
        <mxCell id="29iy6eKjMOHJ7e9zuqEV-70" value="" style="endArrow=classic;html=1;fontSize=14;" edge="1" parent="1">
          <mxGeometry width="50" height="50" relative="1" as="geometry">
            <mxPoint x="150" y="280" as="sourcePoint" />
            <mxPoint x="480" y="280" as="targetPoint" />
          </mxGeometry>
        </mxCell>
        <mxCell id="29iy6eKjMOHJ7e9zuqEV-71" value="&lt;span style=&quot;background-color: rgb(248 , 249 , 250)&quot;&gt;1. submit form&lt;/span&gt;" style="edgeLabel;html=1;align=center;verticalAlign=middle;resizable=0;points=[];fontSize=14;" vertex="1" connectable="0" parent="29iy6eKjMOHJ7e9zuqEV-70">
          <mxGeometry x="-0.0255" y="-1" relative="1" as="geometry">
            <mxPoint as="offset" />
          </mxGeometry>
        </mxCell>
        <mxCell id="29iy6eKjMOHJ7e9zuqEV-72" value="" style="endArrow=classic;html=1;fontSize=14;" edge="1" parent="1">
          <mxGeometry width="50" height="50" relative="1" as="geometry">
            <mxPoint x="480" y="360" as="sourcePoint" />
            <mxPoint x="150" y="360" as="targetPoint" />
          </mxGeometry>
        </mxCell>
        <mxCell id="29iy6eKjMOHJ7e9zuqEV-73" value="&lt;span style=&quot;background-color: rgb(248 , 249 , 250)&quot;&gt;2. send verification Email&lt;/span&gt;" style="edgeLabel;html=1;align=center;verticalAlign=middle;resizable=0;points=[];fontSize=14;" vertex="1" connectable="0" parent="29iy6eKjMOHJ7e9zuqEV-72">
          <mxGeometry x="0.0473" y="1" relative="1" as="geometry">
            <mxPoint as="offset" />
          </mxGeometry>
        </mxCell>
        <mxCell id="29iy6eKjMOHJ7e9zuqEV-75" value="" style="endArrow=classic;html=1;fontSize=14;" edge="1" parent="1">
          <mxGeometry width="50" height="50" relative="1" as="geometry">
            <mxPoint x="480" y="279.5" as="sourcePoint" />
            <mxPoint x="600" y="280" as="targetPoint" />
          </mxGeometry>
        </mxCell>
        <mxCell id="29iy6eKjMOHJ7e9zuqEV-77" value="" style="endArrow=classic;html=1;fontSize=14;" edge="1" parent="1">
          <mxGeometry width="50" height="50" relative="1" as="geometry">
            <mxPoint x="150" y="450" as="sourcePoint" />
            <mxPoint x="480" y="450" as="targetPoint" />
          </mxGeometry>
        </mxCell>
        <mxCell id="29iy6eKjMOHJ7e9zuqEV-78" value="&lt;span style=&quot;background-color: rgb(248 , 249 , 250)&quot;&gt;3. verify Email&lt;/span&gt;" style="edgeLabel;html=1;align=center;verticalAlign=middle;resizable=0;points=[];fontSize=14;" vertex="1" connectable="0" parent="29iy6eKjMOHJ7e9zuqEV-77">
          <mxGeometry x="-0.0255" y="-1" relative="1" as="geometry">
            <mxPoint as="offset" />
          </mxGeometry>
        </mxCell>
        <mxCell id="29iy6eKjMOHJ7e9zuqEV-83" value="" style="endArrow=none;html=1;fontSize=14;" edge="1" parent="1">
          <mxGeometry width="50" height="50" relative="1" as="geometry">
            <mxPoint x="1140" y="650.52" as="sourcePoint" />
            <mxPoint x="1141.535688695707" y="219.99899481250284" as="targetPoint" />
          </mxGeometry>
        </mxCell>
        <mxCell id="29iy6eKjMOHJ7e9zuqEV-84" value="" style="endArrow=classic;html=1;fontSize=14;" edge="1" parent="1">
          <mxGeometry width="50" height="50" relative="1" as="geometry">
            <mxPoint x="890" y="450" as="sourcePoint" />
            <mxPoint x="1140" y="450" as="targetPoint" />
            <Array as="points" />
          </mxGeometry>
        </mxCell>
        <mxCell id="29iy6eKjMOHJ7e9zuqEV-85" value="5. polling queue" style="edgeLabel;html=1;align=center;verticalAlign=middle;resizable=0;points=[];fontSize=14;" vertex="1" connectable="0" parent="29iy6eKjMOHJ7e9zuqEV-84">
          <mxGeometry x="-0.0609" y="-2" relative="1" as="geometry">
            <mxPoint as="offset" />
          </mxGeometry>
        </mxCell>
        <mxCell id="29iy6eKjMOHJ7e9zuqEV-86" value="" style="endArrow=classic;html=1;fontSize=14;entryX=0;entryY=0.5;entryDx=0;entryDy=0;" edge="1" parent="1">
          <mxGeometry width="50" height="50" relative="1" as="geometry">
            <mxPoint x="1140" y="450" as="sourcePoint" />
            <mxPoint x="1360" y="450" as="targetPoint" />
          </mxGeometry>
        </mxCell>
        <mxCell id="29iy6eKjMOHJ7e9zuqEV-87" value="6. reivew and save" style="edgeLabel;html=1;align=center;verticalAlign=middle;resizable=0;points=[];fontSize=14;" vertex="1" connectable="0" parent="29iy6eKjMOHJ7e9zuqEV-86">
          <mxGeometry x="-0.0727" y="-1" relative="1" as="geometry">
            <mxPoint as="offset" />
          </mxGeometry>
        </mxCell>
        <mxCell id="29iy6eKjMOHJ7e9zuqEV-89" value="yellow API&amp;nbsp;" style="outlineConnect=0;fontColor=#232F3E;gradientColor=none;strokeColor=#ffffff;fillColor=#232F3E;dashed=0;verticalLabelPosition=middle;verticalAlign=bottom;align=center;html=1;whiteSpace=wrap;fontSize=10;fontStyle=1;spacing=3;shape=mxgraph.aws4.productIcon;prIcon=mxgraph.aws4.ec2;" vertex="1" parent="1">
          <mxGeometry x="440" y="120" width="80" height="100" as="geometry" />
        </mxCell>
        <mxCell id="29iy6eKjMOHJ7e9zuqEV-90" value="Corona" style="outlineConnect=0;fontColor=#232F3E;gradientColor=none;strokeColor=#ffffff;fillColor=#232F3E;dashed=0;verticalLabelPosition=middle;verticalAlign=bottom;align=center;html=1;whiteSpace=wrap;fontSize=10;fontStyle=1;spacing=3;shape=mxgraph.aws4.productIcon;prIcon=mxgraph.aws4.ec2;" vertex="1" parent="1">
          <mxGeometry x="1100" y="120" width="80" height="100" as="geometry" />
        </mxCell>
        <mxCell id="29iy6eKjMOHJ7e9zuqEV-95" style="edgeStyle=orthogonalEdgeStyle;rounded=0;orthogonalLoop=1;jettySize=auto;html=1;fontSize=14;" edge="1" parent="1" source="29iy6eKjMOHJ7e9zuqEV-91">
          <mxGeometry relative="1" as="geometry">
            <mxPoint x="760" y="280" as="targetPoint" />
          </mxGeometry>
        </mxCell>
        <mxCell id="29iy6eKjMOHJ7e9zuqEV-91" value="yellow API ng&lt;br&gt;DB" style="outlineConnect=0;fontColor=#232F3E;gradientColor=none;strokeColor=#ffffff;fillColor=#232F3E;dashed=0;verticalLabelPosition=middle;verticalAlign=bottom;align=center;html=1;whiteSpace=wrap;fontSize=10;fontStyle=1;spacing=3;shape=mxgraph.aws4.productIcon;prIcon=mxgraph.aws4.aurora;" vertex="1" parent="1">
          <mxGeometry x="600" y="225" width="80" height="110" as="geometry" />
        </mxCell>
        <mxCell id="29iy6eKjMOHJ7e9zuqEV-92" value="SBB DB&lt;br&gt;" style="outlineConnect=0;fontColor=#232F3E;gradientColor=none;strokeColor=#ffffff;fillColor=#232F3E;dashed=0;verticalLabelPosition=middle;verticalAlign=bottom;align=center;html=1;whiteSpace=wrap;fontSize=10;fontStyle=1;spacing=3;shape=mxgraph.aws4.productIcon;prIcon=mxgraph.aws4.aurora;" vertex="1" parent="1">
          <mxGeometry x="1360" y="405" width="80" height="105" as="geometry" />
        </mxCell>
        <mxCell id="29iy6eKjMOHJ7e9zuqEV-97" value="" style="outlineConnect=0;fontColor=#232F3E;gradientColor=none;fillColor=#232F3E;strokeColor=none;dashed=0;verticalLabelPosition=bottom;verticalAlign=top;align=center;html=1;fontSize=12;fontStyle=0;aspect=fixed;pointerEvents=1;shape=mxgraph.aws4.user;" vertex="1" parent="1">
          <mxGeometry x="100" y="120" width="89" height="89" as="geometry" />
        </mxCell>
        <mxCell id="29iy6eKjMOHJ7e9zuqEV-99" value="" style="endArrow=classic;html=1;fontSize=14;" edge="1" parent="1">
          <mxGeometry width="50" height="50" relative="1" as="geometry">
            <mxPoint x="480" y="450" as="sourcePoint" />
            <mxPoint x="810" y="450" as="targetPoint" />
          </mxGeometry>
        </mxCell>
        <mxCell id="29iy6eKjMOHJ7e9zuqEV-100" value="&lt;span style=&quot;background-color: rgb(248 , 249 , 250)&quot;&gt;4. push to Moderation Queue&lt;/span&gt;" style="edgeLabel;html=1;align=center;verticalAlign=middle;resizable=0;points=[];fontSize=14;" vertex="1" connectable="0" parent="29iy6eKjMOHJ7e9zuqEV-99">
          <mxGeometry x="-0.0255" y="-1" relative="1" as="geometry">
            <mxPoint as="offset" />
          </mxGeometry>
        </mxCell>
      </root>
    </mxGraphModel>
  </diagram>
  <diagram id="XCCkUKaKYrXGj7cL13US" name="update listing">
    <mxGraphModel dx="1426" dy="733" grid="1" gridSize="10" guides="1" tooltips="1" connect="1" arrows="1" fold="1" page="1" pageScale="1" pageWidth="1169" pageHeight="827" math="0" shadow="0">
      <root>
        <mxCell id="cihRIHrK0_mQT5GuLF_U-0" />
        <mxCell id="cihRIHrK0_mQT5GuLF_U-1" parent="cihRIHrK0_mQT5GuLF_U-0" />
        <mxCell id="F1PyZS6dUZNqGC6SLh-R-0" value="eintragSource" style="rounded=0;whiteSpace=wrap;html=1;fontSize=14;" vertex="1" parent="cihRIHrK0_mQT5GuLF_U-1">
          <mxGeometry x="760" y="220" width="110" height="56.75" as="geometry" />
        </mxCell>
        <mxCell id="F1PyZS6dUZNqGC6SLh-R-1" value="Queue Service" style="outlineConnect=0;fontColor=#232F3E;gradientColor=none;strokeColor=#ffffff;fillColor=#232F3E;dashed=0;verticalLabelPosition=middle;verticalAlign=bottom;align=center;html=1;whiteSpace=wrap;fontSize=10;fontStyle=1;spacing=3;shape=mxgraph.aws4.productIcon;prIcon=mxgraph.aws4.sqs;" vertex="1" parent="cihRIHrK0_mQT5GuLF_U-1">
          <mxGeometry x="810" y="410" width="80" height="100" as="geometry" />
        </mxCell>
        <mxCell id="F1PyZS6dUZNqGC6SLh-R-2" value="" style="endArrow=none;html=1;fontSize=14;" edge="1" parent="cihRIHrK0_mQT5GuLF_U-1">
          <mxGeometry width="50" height="50" relative="1" as="geometry">
            <mxPoint x="147" y="640" as="sourcePoint" />
            <mxPoint x="147" y="230" as="targetPoint" />
          </mxGeometry>
        </mxCell>
        <mxCell id="F1PyZS6dUZNqGC6SLh-R-3" value="" style="endArrow=none;html=1;fontSize=14;" edge="1" parent="cihRIHrK0_mQT5GuLF_U-1">
          <mxGeometry width="50" height="50" relative="1" as="geometry">
            <mxPoint x="480.24" y="630.52" as="sourcePoint" />
            <mxPoint x="480" y="220" as="targetPoint" />
          </mxGeometry>
        </mxCell>
        <mxCell id="F1PyZS6dUZNqGC6SLh-R-4" value="" style="endArrow=classic;html=1;fontSize=14;" edge="1" parent="cihRIHrK0_mQT5GuLF_U-1">
          <mxGeometry width="50" height="50" relative="1" as="geometry">
            <mxPoint x="150" y="280" as="sourcePoint" />
            <mxPoint x="480" y="280" as="targetPoint" />
          </mxGeometry>
        </mxCell>
        <mxCell id="F1PyZS6dUZNqGC6SLh-R-5" value="&lt;span style=&quot;background-color: rgb(248 , 249 , 250)&quot;&gt;1. submit form&lt;/span&gt;" style="edgeLabel;html=1;align=center;verticalAlign=middle;resizable=0;points=[];fontSize=14;" vertex="1" connectable="0" parent="F1PyZS6dUZNqGC6SLh-R-4">
          <mxGeometry x="-0.0255" y="-1" relative="1" as="geometry">
            <mxPoint as="offset" />
          </mxGeometry>
        </mxCell>
        <mxCell id="F1PyZS6dUZNqGC6SLh-R-6" value="" style="endArrow=classic;html=1;fontSize=14;" edge="1" parent="cihRIHrK0_mQT5GuLF_U-1">
          <mxGeometry width="50" height="50" relative="1" as="geometry">
            <mxPoint x="480" y="360" as="sourcePoint" />
            <mxPoint x="150" y="360" as="targetPoint" />
          </mxGeometry>
        </mxCell>
        <mxCell id="F1PyZS6dUZNqGC6SLh-R-7" value="&lt;span style=&quot;background-color: rgb(248 , 249 , 250)&quot;&gt;2. send verification Email&lt;/span&gt;" style="edgeLabel;html=1;align=center;verticalAlign=middle;resizable=0;points=[];fontSize=14;" vertex="1" connectable="0" parent="F1PyZS6dUZNqGC6SLh-R-6">
          <mxGeometry x="0.0473" y="1" relative="1" as="geometry">
            <mxPoint as="offset" />
          </mxGeometry>
        </mxCell>
        <mxCell id="F1PyZS6dUZNqGC6SLh-R-8" value="" style="endArrow=classic;html=1;fontSize=14;" edge="1" parent="cihRIHrK0_mQT5GuLF_U-1">
          <mxGeometry width="50" height="50" relative="1" as="geometry">
            <mxPoint x="480" y="279.5" as="sourcePoint" />
            <mxPoint x="600" y="280" as="targetPoint" />
          </mxGeometry>
        </mxCell>
        <mxCell id="F1PyZS6dUZNqGC6SLh-R-9" value="" style="endArrow=classic;html=1;fontSize=14;" edge="1" parent="cihRIHrK0_mQT5GuLF_U-1">
          <mxGeometry width="50" height="50" relative="1" as="geometry">
            <mxPoint x="150" y="450" as="sourcePoint" />
            <mxPoint x="480" y="450" as="targetPoint" />
          </mxGeometry>
        </mxCell>
        <mxCell id="F1PyZS6dUZNqGC6SLh-R-10" value="&lt;span style=&quot;background-color: rgb(248 , 249 , 250)&quot;&gt;3. verify Email&lt;/span&gt;" style="edgeLabel;html=1;align=center;verticalAlign=middle;resizable=0;points=[];fontSize=14;" vertex="1" connectable="0" parent="F1PyZS6dUZNqGC6SLh-R-9">
          <mxGeometry x="-0.0255" y="-1" relative="1" as="geometry">
            <mxPoint as="offset" />
          </mxGeometry>
        </mxCell>
        <mxCell id="F1PyZS6dUZNqGC6SLh-R-11" value="" style="endArrow=none;html=1;fontSize=14;" edge="1" parent="cihRIHrK0_mQT5GuLF_U-1">
          <mxGeometry width="50" height="50" relative="1" as="geometry">
            <mxPoint x="1140" y="650.52" as="sourcePoint" />
            <mxPoint x="1141.535688695707" y="219.99899481250281" as="targetPoint" />
          </mxGeometry>
        </mxCell>
        <mxCell id="F1PyZS6dUZNqGC6SLh-R-12" value="" style="endArrow=classic;html=1;fontSize=14;" edge="1" parent="cihRIHrK0_mQT5GuLF_U-1">
          <mxGeometry width="50" height="50" relative="1" as="geometry">
            <mxPoint x="890" y="450" as="sourcePoint" />
            <mxPoint x="1140" y="450" as="targetPoint" />
            <Array as="points" />
          </mxGeometry>
        </mxCell>
        <mxCell id="F1PyZS6dUZNqGC6SLh-R-13" value="5. polling queue" style="edgeLabel;html=1;align=center;verticalAlign=middle;resizable=0;points=[];fontSize=14;" vertex="1" connectable="0" parent="F1PyZS6dUZNqGC6SLh-R-12">
          <mxGeometry x="-0.0609" y="-2" relative="1" as="geometry">
            <mxPoint as="offset" />
          </mxGeometry>
        </mxCell>
        <mxCell id="F1PyZS6dUZNqGC6SLh-R-14" value="" style="endArrow=classic;html=1;fontSize=14;entryX=0;entryY=0.5;entryDx=0;entryDy=0;" edge="1" parent="cihRIHrK0_mQT5GuLF_U-1">
          <mxGeometry width="50" height="50" relative="1" as="geometry">
            <mxPoint x="1140" y="450" as="sourcePoint" />
            <mxPoint x="1360" y="450" as="targetPoint" />
          </mxGeometry>
        </mxCell>
        <mxCell id="F1PyZS6dUZNqGC6SLh-R-15" value="6. reivew and save" style="edgeLabel;html=1;align=center;verticalAlign=middle;resizable=0;points=[];fontSize=14;" vertex="1" connectable="0" parent="F1PyZS6dUZNqGC6SLh-R-14">
          <mxGeometry x="-0.0727" y="-1" relative="1" as="geometry">
            <mxPoint as="offset" />
          </mxGeometry>
        </mxCell>
        <mxCell id="F1PyZS6dUZNqGC6SLh-R-16" value="yellow API ng" style="outlineConnect=0;fontColor=#232F3E;gradientColor=none;strokeColor=#ffffff;fillColor=#232F3E;dashed=0;verticalLabelPosition=middle;verticalAlign=bottom;align=center;html=1;whiteSpace=wrap;fontSize=10;fontStyle=1;spacing=3;shape=mxgraph.aws4.productIcon;prIcon=mxgraph.aws4.ec2;" vertex="1" parent="cihRIHrK0_mQT5GuLF_U-1">
          <mxGeometry x="440" y="120" width="80" height="100" as="geometry" />
        </mxCell>
        <mxCell id="F1PyZS6dUZNqGC6SLh-R-17" value="Corona" style="outlineConnect=0;fontColor=#232F3E;gradientColor=none;strokeColor=#ffffff;fillColor=#232F3E;dashed=0;verticalLabelPosition=middle;verticalAlign=bottom;align=center;html=1;whiteSpace=wrap;fontSize=10;fontStyle=1;spacing=3;shape=mxgraph.aws4.productIcon;prIcon=mxgraph.aws4.ec2;" vertex="1" parent="cihRIHrK0_mQT5GuLF_U-1">
          <mxGeometry x="1100" y="120" width="80" height="100" as="geometry" />
        </mxCell>
        <mxCell id="F1PyZS6dUZNqGC6SLh-R-18" style="edgeStyle=orthogonalEdgeStyle;rounded=0;orthogonalLoop=1;jettySize=auto;html=1;fontSize=14;" edge="1" parent="cihRIHrK0_mQT5GuLF_U-1" source="F1PyZS6dUZNqGC6SLh-R-19">
          <mxGeometry relative="1" as="geometry">
            <mxPoint x="760" y="280" as="targetPoint" />
          </mxGeometry>
        </mxCell>
        <mxCell id="F1PyZS6dUZNqGC6SLh-R-19" value="yellow API ng&lt;br&gt;DB" style="outlineConnect=0;fontColor=#232F3E;gradientColor=none;strokeColor=#ffffff;fillColor=#232F3E;dashed=0;verticalLabelPosition=middle;verticalAlign=bottom;align=center;html=1;whiteSpace=wrap;fontSize=10;fontStyle=1;spacing=3;shape=mxgraph.aws4.productIcon;prIcon=mxgraph.aws4.aurora;" vertex="1" parent="cihRIHrK0_mQT5GuLF_U-1">
          <mxGeometry x="600" y="225" width="80" height="110" as="geometry" />
        </mxCell>
        <mxCell id="F1PyZS6dUZNqGC6SLh-R-20" value="SBB DB&lt;br&gt;" style="outlineConnect=0;fontColor=#232F3E;gradientColor=none;strokeColor=#ffffff;fillColor=#232F3E;dashed=0;verticalLabelPosition=middle;verticalAlign=bottom;align=center;html=1;whiteSpace=wrap;fontSize=10;fontStyle=1;spacing=3;shape=mxgraph.aws4.productIcon;prIcon=mxgraph.aws4.aurora;" vertex="1" parent="cihRIHrK0_mQT5GuLF_U-1">
          <mxGeometry x="1360" y="405" width="80" height="105" as="geometry" />
        </mxCell>
        <mxCell id="F1PyZS6dUZNqGC6SLh-R-21" value="" style="outlineConnect=0;fontColor=#232F3E;gradientColor=none;fillColor=#232F3E;strokeColor=none;dashed=0;verticalLabelPosition=bottom;verticalAlign=top;align=center;html=1;fontSize=12;fontStyle=0;aspect=fixed;pointerEvents=1;shape=mxgraph.aws4.user;" vertex="1" parent="cihRIHrK0_mQT5GuLF_U-1">
          <mxGeometry x="100" y="120" width="89" height="89" as="geometry" />
        </mxCell>
        <mxCell id="F1PyZS6dUZNqGC6SLh-R-22" value="" style="endArrow=classic;html=1;fontSize=14;" edge="1" parent="cihRIHrK0_mQT5GuLF_U-1">
          <mxGeometry width="50" height="50" relative="1" as="geometry">
            <mxPoint x="480" y="450" as="sourcePoint" />
            <mxPoint x="810" y="450" as="targetPoint" />
          </mxGeometry>
        </mxCell>
        <mxCell id="F1PyZS6dUZNqGC6SLh-R-23" value="&lt;span style=&quot;background-color: rgb(248 , 249 , 250)&quot;&gt;4. push to Moderation Queue&lt;/span&gt;" style="edgeLabel;html=1;align=center;verticalAlign=middle;resizable=0;points=[];fontSize=14;" vertex="1" connectable="0" parent="F1PyZS6dUZNqGC6SLh-R-22">
          <mxGeometry x="-0.0255" y="-1" relative="1" as="geometry">
            <mxPoint as="offset" />
          </mxGeometry>
        </mxCell>
        <mxCell id="F1PyZS6dUZNqGC6SLh-R-28" value="oeffnungszeitenSource" style="rounded=0;whiteSpace=wrap;html=1;fontSize=14;" vertex="1" parent="cihRIHrK0_mQT5GuLF_U-1">
          <mxGeometry x="760" y="290" width="170" height="56.75" as="geometry" />
        </mxCell>
      </root>
    </mxGraphModel>
  </diagram>
  <diagram id="m__pCkoWrEYjWCTkNnYz" name="delete listing">
    <mxGraphModel dx="1426" dy="733" grid="1" gridSize="10" guides="1" tooltips="1" connect="1" arrows="1" fold="1" page="1" pageScale="1" pageWidth="1169" pageHeight="827" math="0" shadow="0">
      <root>
        <mxCell id="5Wzk69IY9DtJVw7MCx51-0" />
        <mxCell id="5Wzk69IY9DtJVw7MCx51-1" parent="5Wzk69IY9DtJVw7MCx51-0" />
      </root>
    </mxGraphModel>
  </diagram>
</mxfile>
